<svg xmlns="http://www.w3.org/2000/svg" height="800" width="1200" viewBox="-4.233327 -1.365515 36.688834 8.19309"><g fill="#ee2841"><path d="M27.49615 1.64938c-.0261 0-.04692-.0219-.04692-.0473v-.3175h-.09066c-.02223 0-.04127-.0187-.04127-.0413 0-.0233.01905-.0416.04127-.0416h.27482c.02187 0 .04092.0183.04092.0416 0 .0226-.01905.0413-.04092.0413h-.09102v.3175c0 .0254-.02081.0473-.04621.0473m.6791 0c-.0254 0-.04622-.0219-.04622-.0473v-.27623l-.11818.30621c-.0039.01-.01376.0173-.02505.0173-.01094 0-.0208-.007-.0247-.0173l-.11818-.3062v.27622c0 .0254-.0201.0473-.0455.0473-.0261 0-.04728-.0219-.04728-.0473V1.274c0-.0427.03422-.0772.07585-.0772.03281 0 .05997.0208.07126.0501l.08855.23107.0896-.23107c.01023-.0293.03845-.0501.07056-.0501.04233 0 .0762.0346.0762.0772v.3281c0 .0254-.0208.0473-.04692.0473M3.33803 1.062c0-.15875.04939-.30586.133-.42792-.25154.0741-.4364.3041-.4364.57961v.48543l.3034.0152zm-.30345 3.33802c0 .27552.18485.50553.43674.57961-.08396-.12206-.13335-.26917-.13335-.42792v-.9105h-.3034zm.75864-.75865h-.3034v.91052c0 .27552.18486.50553.4364.57961-.08362-.12206-.133-.26917-.133-.42792zm0-2.73113c0-.15875.04939-.30586.133-.42792-.25154.0741-.4364.3041-.4364.57961v.66005l.3034.0152zM.37218.7159C.15028.84817 0 1.08841 0 1.36534v2.8829c0 .2773.15028.51718.37218.64947a.90257.90257 0 01-.06879-.34608V1.06196c0-.1224.0247-.23918.0688-.34607m.38644.04265c0-.1224.0247-.23918.0688-.34607-.2219.1323-.37219.37218-.37219.64946v3.49003c0 .32597.20673.6015.49565.70873-.11994-.15416-.19226-.34713-.19226-.55704z"/><path d="M4.55186.30335c-.33514 0-.60678.27164-.60678.60678v.98636l-1.5173-.0758V.75847C2.42778.33973 2.08806 0 1.66896 0c-.4191 0-.75848.33973-.75848.75847V4.7036c0 .4191.33938.75847.75848.75847.4191 0 .75882-.33937.75882-.75847V3.4897h1.5173v1.2139c0 .33514.27164.60677.60678.60677s.60677-.27163.60677-.60677V.91017c0-.33514-.27163-.60678-.60677-.60678m5.23888 3.69517v-1.1236h-1.639v1.1236c0 .11994-.09773.2219-.21767.2219-.12418 0-.22648-.10196-.22648-.2219V1.43563c0-.11994.1023-.2219.22225-.2219.12417 0 .2219.10196.2219.2219V2.4795h1.639V1.43563c0-.11994.09772-.2219.22225-.2219.12418 0 .2219.10196.2219.2219v2.56293c0 .11994-.09772.2219-.2219.2219-.12453 0-.22225-.10196-.22225-.2219m.75803-.87506c0-.61737.41769-1.1236 1.08373-1.1236.67063 0 1.08374.50623 1.08374 1.1236 0 .62194-.4131 1.12817-1.08374 1.12817-.66604 0-1.08373-.50623-1.08373-1.12818m1.75013 0c0-.40428-.23566-.76835-.6664-.76835-.4265 0-.66604.36407-.66604.76835 0 .40852.23953.77294.66604.77294.43074 0 .6664-.36442.6664-.77294m2.74088-1.12366c.64417 0 1.04387.502 1.04387 1.0661 0 .11994-.08467.19085-.23566.19085h-1.4612c.03105.36406.29774.6664.72848.6664.18204 0 .37324-.0579.53305-.17357.02223-.0176.05327-.0219.0889-.0219.0889 0 .15981.0709.15981.1598 0 .0575-.0268.10196-.0709.13335-.21344.15523-.46673.23072-.75072.23072-.63959 0-1.11055-.45297-1.11055-1.12818 0-.6216.44874-1.1236 1.07492-1.1236m-.65723.96837h1.31022c-.0088-.28433-.20002-.63958-.653-.63958-.43073 0-.63534.34643-.65722.63958m1.95546 1.05254V1.41333c0-.11077.0889-.19967.20003-.19967.10654 0 .19967.0889.19967.19967v2.60738c0 .11112-.09313.20002-.19967.20002a.1992.1992 0 01-.20003-.20002m.65678-.15101c0-.0977.07549-.17322.17321-.17322.03563 0 .07091.0134.09772.031.1644.11995.37747.20426.60396.20426.30197 0 .46178-.12418.46178-.30656 0-.21308-.24412-.28399-.51964-.34608-.36407-.0847-.79022-.18239-.79022-.64417 0-.34184.2928-.635.81703-.635.29775 0 .53305.0885.71508.2219.03986.031.07091.0755.07091.13335 0 .0885-.07549.16404-.16404.16404-.03105 0-.06668-.0131-.0889-.031-.13758-.10195-.3242-.16404-.52846-.16404-.27093 0-.43991.10654-.43991.27975 0 .18662.23107.24871.49741.3108.37324.0843.81739.18662.81739.67945 0 .36865-.30198.65758-.86607.65758-.29774 0-.5641-.0755-.78176-.23989-.04445-.031-.07549-.0843-.07549-.14217m2.24771-.17767c.151 0 .27975.12453.27975.27552 0 .151-.12876.27975-.27975.27975-.15099 0-.27552-.12876-.27552-.27975 0-.15099.12453-.27552.27552-.27552m2.35503-.56853c0-.61737.41734-1.1236 1.08373-1.1236.67064 0 1.08374.50623 1.08374 1.1236 0 .62194-.4131 1.12817-1.08374 1.12817-.6664 0-1.08373-.50623-1.08373-1.12818m1.75013 0c0-.40428-.23565-.76835-.6664-.76835-.4265 0-.6664.36407-.6664.76835 0 .40852.2399.77294.6664.77294.43075 0 .6664-.36442.6664-.77294m3.72452-.47526V4.0209c0 .11077-.09349.19967-.20425.19967-.10654 0-.19544-.0889-.19544-.19967V2.76817c0-.2487-.11113-.36865-.37324-.36865-.21767 0-.43074.24483-.53305.4004V4.0209a.19882.19882 0 01-.19967.19967c-.10654 0-.20003-.0889-.20003-.19967V2.76817c0-.2487-.10653-.36865-.37747-.36865-.20884 0-.41733.25965-.52423.41487v1.2065c0 .11077-.09313.19967-.19967.19967-.11112 0-.20002-.0889-.20002-.19967v-1.79c0-.11112.0889-.20002.19544-.20002.11112 0 .20425.0889.20425.20002v.12418c.0889-.13335.37324-.35525.69286-.35525.32456 0 .5154.16863.58208.3997.12418-.20002.41452-.3997.7299-.3997.39546 0 .60254.21767.60254.64841"/><path d="M20.72028 1.99983c.30656 0 .51964.0977.68403.24871.03528.031.0621.0843.0621.13335 0 .10195-.08009.18203-.17745.18203-.04904 0-.0889-.018-.1203-.0445-.12418-.11536-.26176-.16439-.43074-.16439-.42192 0-.69286.3242-.69286.76835 0 .44414.27129.75882.69286.77293.2847.01.5715-.1972.80186-.5609.02858-.0452.07055-.12913.10513-.17287.06526-.0825.11183-.043.15028-.003.07055.0737.06985.24871.024.3348-.12948.24164-.23848.35418-.3623.47518-.17252.16722-.43005.28187-.7366.28187-.64842 0-1.09256-.484-1.09256-1.12818 0-.64382.44414-1.1236 1.09255-1.1236m-6.46991 1.86987c0 .0755-.21625.24447-.37183.31997-.08855.043-.1778.0621-.30656.0621-.33761 0-.51082-.19085-.51082-.52846V2.40405h-.20426c-.09313 0-.1778-.0801-.1778-.1778 0-.0931.08467-.1732.1778-.1732h.20426v-.40853a.1992.1992 0 01.20002-.20002c.10654 0 .19967.0889.19967.20002v.40852h.2801c.09738 0 .17746.0801.17746.17321 0 .0977-.08008.1778-.17745.1778h-.2801V3.6342c0 .151.07125.26211.20884.26211.24447 0 .43674-.37959.54504-.37959.10195 0 .03563.25506.03563.35278"/></g></svg>