<svg xmlns="http://www.w3.org/2000/svg" height="800" width="1200" xml:space="preserve" y="0" x="0" id="Layer_1" version="1.1" viewBox="-19.065135 -8.0079 165.23117 48.0474"><style id="style10964" type="text/css">.st0{fill:#37474d}.st3{fill:#007db0}</style><g transform="translate(.001)" id="g10982"><path id="polygon10966" class="st0" d="M75.9 20h.1l3.3-9.7h4.4l-5.6 14.3h-4.7l-5.9-14.3h4.8z"/><path id="path10968" d="M50.3 13.8H46v4.7c0 .4 0 .7.1 1.1 0 .3.1.6.3.8.1.2.4.4.7.5.3.1.7.2 1.2.2.3 0 .6 0 1-.1.4 0 .7-.2 1-.3v3.7c-.5.2-1.1.3-1.7.4-.6.1-1.1.1-1.7.1-.8 0-1.6-.1-2.3-.2-.7-.2-1.3-.4-1.8-.7-.5-.3-.9-.8-1.2-1.3-.3-.5-.4-1.2-.4-2v-6.8h-3.1v-3.5h3.1V6.1H46v4.2h4.3z" class="st0"/><path id="path10970" d="M51.6 10.3H56v2.3c.5-.9 1-1.5 1.7-2 .6-.4 1.5-.7 2.4-.7h.8c.3 0 .5.1.7.1v4c-.3-.1-.6-.2-.9-.2-.3 0-.6-.1-1-.1-.8 0-1.5.1-2 .4-.5.2-.9.6-1.1 1-.3.4-.4.9-.5 1.5-.1.6-.1 1.2-.1 1.9v5.9h-4.4z" class="st0"/><path id="path10972" d="M64.8 8.9c.6 0 1.2-.2 1.6-.7.5-.5.7-1 .7-1.6 0-.6-.2-1.2-.7-1.6-.5-.5-1-.7-1.6-.7-.6 0-1.2.2-1.6.7-.5.5-.7 1-.7 1.6 0 .6.2 1.2.7 1.6.4.4.9.7 1.6.7z" class="st0"/><path id="rect10974" class="st0" d="M62.6 10.3H67v14.2h-4.4z"/><path id="path10976" d="M91.2 18.3H90c-.5 0-1 .1-1.4.2-.5.1-.9.3-1.2.6-.3.3-.5.7-.5 1.1 0 .5.2.9.7 1.2.4.3.9.4 1.4.4.4 0 .8-.1 1.2-.2.4-.1.8-.3 1.1-.5.3-.2.6-.5.7-.8.2-.3.3-.7.3-1.2v-.9h-1.1zm1 4.5c-.5.8-1.2 1.3-2 1.6-.8.3-1.7.5-2.6.5-.7 0-1.3-.1-1.9-.3-.6-.2-1.2-.5-1.6-.8-.5-.4-.8-.8-1.1-1.4-.3-.5-.4-1.2-.4-1.9 0-.8.2-1.5.5-2.1.3-.6.7-1 1.2-1.4.5-.4 1.1-.7 1.8-.9.7-.2 1.4-.4 2.1-.5.7-.1 1.4-.2 2.1-.2h2c0-.8-.3-1.4-.8-1.9-.6-.5-1.2-.7-2-.7-.7 0-1.4.2-2 .5-.6.3-1.1.7-1.6 1.2l-2.3-2.4c.8-.8 1.8-1.3 2.9-1.7 1.1-.4 2.2-.6 3.4-.6 1.3 0 2.3.2 3.2.5.8.3 1.5.8 2 1.4.5.6.8 1.4 1 2.3.2.9.3 2 .3 3.1v7.2h-4v-1.5z" class="st0"/><path id="path10978" d="M126.5 14.4c-.4-.9-.9-1.7-1.5-2.4s-1.4-1.2-2.3-1.5c-.9-.4-1.8-.5-2.8-.5-1 0-1.9.2-2.8.5-.9.4-1.6.9-2.3 1.5-.6.7-1.2 1.4-1.5 2.4-.4.9-.6 1.9-.6 3.1 0 1.2.2 2.2.6 3.1.4.9.9 1.7 1.5 2.4s1.4 1.2 2.3 1.5c.9.4 1.8.5 2.8.5 1 0 1.9-.2 2.8-.5.9-.3 1.6-.9 2.3-1.5.6-.7 1.2-1.4 1.5-2.4.4-.9.6-1.9.6-3.1 0-1.2-.2-2.2-.6-3.1zm-4.2 5.6c-.6.7-1.3 1-2.3 1-1 0-1.8-.3-2.3-1-.6-.7-.8-1.5-.8-2.6s.3-1.9.8-2.6c.6-.7 1.3-1 2.3-1 1 0 1.8.3 2.3 1 .6.7.8 1.5.8 2.6s-.3 2-.8 2.6z" class="st0"/><path id="path10980" d="M108 10.4v1.9s-.3-.5-.6-.7c-.3-.3-.6-.5-1.1-.7-.4-.2-.9-.4-1.4-.5-.5-.1-1.1-.2-1.7-.2-1 0-1.9.2-2.7.6-.8.4-1.5.9-2 1.7-.5.7-.8 1.4-1 2.4-.2.9-.3 1.8-.3 2.8 0 1.1.2 2.1.4 3 .3.9.6 1.6 1.1 2.3.6.7 1.4 1.2 2.2 1.5.9.4 1.8.5 2.9.5.7 0 1.4-.2 2.1-.4.8-.3 1.5-.8 1.7-1.5v1.4c0 1-.2 1.8-.8 2.5-.6.7-1.5 1-2.9 1-.9 0-1.5 0-2.4-.2-.8-.2-1.8-.6-2.5-1.1l-2.1 3.1c1.1.8 2.2 1.3 3.4 1.7 1.2.3 2.5.4 3.7.4 2.8 0 4.8-.7 6.1-2.1 1.4-1.4 1.9-3.4 1.9-6.1V10.4zm-1 9.6c-.6.7-1.3 1-2.3 1-1 0-1.8-.3-2.3-1-.6-.7-.8-1.5-.8-2.6s.3-1.9.8-2.6c.6-.7 1.3-1 2.3-1 1 0 1.8.3 2.3 1 .6.7.8 1.5.8 2.6s-.3 2-.8 2.6z" class="st0"/></g><g transform="translate(.001)" id="g10992"><path id="path10984" d="M12.2 27.2C-.5 20.8 1.4 9.4 4.7 4.3c-.9.9-1.7 1.9-2.5 3C1.3 8.8-.9 12.9.4 18c1.2 5.1 4.8 8.6 7.7 10.5 4.6 3 9.1 3.7 12.2 3.5 4.7-.3 7.8-3 9.4-5.5.9-1.5 1.4-2.9 1.5-3.4-.5.7-6.5 10.3-19 4.1z" fill="#c93f1f"/><path id="path10986" d="M20.7 26.9c-.2 0-.4 0-.7.1-2.6 0-5.5-.9-7.5-1.9C11 24.3 9 23 7.5 21 0 11.3 9.8 1.4 12.5.2c-.5.1-1.1.2-1.8.4-1.6.5-3.9 1.7-6 3.7-.3.4-.6.9-.9 1.3C2.8 7.1.8 11 1.9 16c1.2 5 4.7 8.4 7.5 10.2 4.5 3 8.8 3.6 11.9 3.4 4.6-.3 7.6-3 9.1-5.3.3-.4.5-.8.7-1.2 0-.2.1-.3.1-.3.1-.4.2-1.2.3-1.4.3-2 .1-4-.2-5.7-.5 3.5-3.3 10.5-10.6 11.2zM6.5 19.1zm13.6 7.8z" fill="#f39200"/><path id="path10988" d="M28.9 9.6c-.3-.5-.7-1.1-.7-1.2-.4-.5-.8-1.1-1.1-1.5-.8-1-2.2-1.1-3.2-.3s-1.1 2.2-.4 3.2c.9 1.1 1.4 2 2 3.4.3.6.8 2 1.1 3.7.2 1.5.4 4.5-1.2 6.9-.5.8-1.8 2.5-4.3 3-.1 0-.3.1-.5.1h.8c4-.3 6.7-2.6 8-4.7 1-1.6 1.4-3.2 1.4-3.2.1-.4.2-1 .2-1.2.1-.7.2-1.4.1-2.1-.2-.8-.3-1.5-.5-2.1-.3-1.5-1-2.8-1.7-4z" class="st3"/><path id="path10990" d="M6.5 19.1c-.3-.7-.6-1.5-.8-2.3-.3-1.1-.4-4.1 1.3-6.6 1.9-2.7 4-4.4 8.9-4.5 1.6 0 2.8-.8 3-2.4.2-1.6-.9-3-2.6-3.2-.6-.1-1.2-.1-1.8-.1 0 0-.8 0-2 .2-2 .8-4.7 2.6-6.5 5.5-.8 1.3-2.7 4.7-1.6 9.2.6 2.5 1.8 4.5 3.2 6.1-.4-.6-.8-1.2-1.1-1.9zm0 0z" class="st3"/></g></svg>